<svg version="1.1" viewBox="0.0 0.0 960.0 540.0" fill="none" stroke="none" stroke-linecap="square" stroke-miterlimit="10" xmlns:xlink="http://www.w3.org/1999/xlink" xmlns="http://www.w3.org/2000/svg"><clipPath id="ga71d2e1920_0_3.0"><path d="m0 0l960.0 0l0 540.0l-960.0 0l0 -540.0z" clip-rule="nonzero"/></clipPath><g clip-path="url(#ga71d2e1920_0_3.0)"><path fill="#ffffff" d="m0 0l960.0 0l0 540.0l-960.0 0z" fill-rule="evenodd"/><path fill="#eeeeee" d="m698.50806 268.22702l0 3.527588l0 0c0 52.06595 -20.683105 101.99942 -57.49933 138.81561c-36.816162 36.816223 -86.749695 57.49933 -138.81564 57.49933l-196.31494 0c-0.0018310547 0 -0.0032958984 -0.0014648438 -0.0032958984 -0.0032958984l0.0032958984 -396.15417l0 0c0 -0.0018234253 0.0014648438 -0.0032958984 0.0032958984 -0.0032958984l196.31165 0.0032958984l0 0c108.42178 0 196.31497 87.89321 196.31497 196.31494z" fill-rule="evenodd"/><path stroke="#595959" stroke-width="1.0" stroke-linejoin="round" stroke-linecap="butt" d="m698.50806 268.22702l0 3.527588l0 0c0 52.06595 -20.683105 101.99942 -57.49933 138.81561c-36.816162 36.816223 -86.749695 57.49933 -138.81564 57.49933l-196.31494 0c-0.0018310547 0 -0.0032958984 -0.0014648438 -0.0032958984 -0.0032958984l0.0032958984 -396.15417l0 0c0 -0.0018234253 0.0014648438 -0.0032958984 0.0032958984 -0.0032958984l196.31165 0.0032958984l0 0c108.42178 0 196.31497 87.89321 196.31497 196.31494z" fill-rule="evenodd"/><path fill="#000000" fill-opacity="0.0" d="m509.3177 278.8924l163.49603 0l0 58.04724l-163.49603 0z" fill-rule="evenodd"/><path fill="#000000" d="m521.03644 305.5424l5.109375 0l0 3.046875q1.0 -1.5625 2.703125 -2.53125q1.703125 -0.984375 3.765625 -0.984375q3.609375 0 6.125 2.84375q2.53125 2.828125 2.53125 7.890625q0 5.1875 -2.546875 8.078125q-2.53125 2.875 -6.140625 2.875q-1.71875 0 -3.125 -0.6875q-1.390625 -0.6875 -2.9375 -2.34375l0 10.453125l-5.484375 0l0 -28.640625zm5.421875 10.03125q0 3.484375 1.390625 5.15625q1.390625 1.671875 3.375 1.671875q1.921875 0 3.1875 -1.53125q1.265625 -1.53125 1.265625 -5.03125q0 -3.265625 -1.3125 -4.84375q-1.296875 -1.578125 -3.234375 -1.578125q-2.015625 0 -3.34375 1.5625q-1.328125 1.546875 -1.328125 4.59375zm19.230469 10.71875l0 -28.640625l5.78125 0l0 11.28125l11.328125 0l0 -11.28125l5.78125 0l0 28.640625l-5.78125 0l0 -12.515625l-11.328125 0l0 12.515625l-5.78125 0zm34.07422 0l-5.484375 0l0 -20.75l5.09375 0l0 2.953125q1.3125 -2.09375 2.359375 -2.75q1.046875 -0.671875 2.375 -0.671875q1.875 0 3.609375 1.046875l-1.703125 4.78125q-1.390625 -0.90625 -2.578125 -0.90625q-1.15625 0 -1.953125 0.640625q-0.796875 0.640625 -1.265625 2.296875q-0.453125 1.65625 -0.453125 6.953125l0 6.40625zm10.160156 -20.75l5.109375 0l0 3.046875q1.0 -1.5625 2.703125 -2.53125q1.703125 -0.984375 3.765625 -0.984375q3.609375 0 6.125 2.84375q2.53125 2.828125 2.53125 7.890625q0 5.1875 -2.546875 8.078125q-2.53125 2.875 -6.140625 2.875q-1.71875 0 -3.125 -0.6875q-1.390625 -0.6875 -2.9375 -2.34375l0 10.453125l-5.484375 0l0 -28.640625zm5.421875 10.03125q0 3.484375 1.390625 5.15625q1.390625 1.671875 3.375 1.671875q1.921875 0 3.1875 -1.53125q1.265625 -1.53125 1.265625 -5.03125q0 -3.265625 -1.3125 -4.84375q-1.296875 -1.578125 -3.234375 -1.578125q-2.015625 0 -3.34375 1.5625q-1.328125 1.546875 -1.328125 4.59375zm19.355469 10.71875l0 -28.40625l5.78125 0l0 23.578125l14.375 0l0 4.828125l-20.15625 0z" fill-rule="nonzero"/><path fill="#000000" fill-opacity="0.0" d="m548.73016 276.0871l411.2708 0" fill-rule="evenodd"/><path stroke="#000000" stroke-width="4.0" stroke-linejoin="round" stroke-linecap="butt" d="m548.73016 276.0871l411.2708 0" fill-rule="evenodd"/><path fill="#93c47d" d="m736.63464 241.90504l123.07489 0l0 -34.182053l68.364136 68.364105l-68.364136 68.364075l0 -34.182037l-123.07489 0z" fill-rule="evenodd"/><path stroke="#000000" stroke-width="1.0" stroke-linejoin="round" stroke-linecap="butt" d="m736.63464 241.90504l123.07489 0l0 -34.182053l68.364136 68.364105l-68.364136 68.364075l0 -34.182037l-123.07489 0z" fill-rule="evenodd"/><path fill="#000000" fill-opacity="0.0" d="m568.2388 207.72299l90.386475 0" fill-rule="evenodd"/><path stroke="#000000" stroke-width="3.0" stroke-linejoin="round" stroke-linecap="butt" d="m568.23883 207.72299l72.38641 0" fill-rule="evenodd"/><path fill="#000000" stroke="#000000" stroke-width="3.0" stroke-linecap="butt" d="m640.62524 212.67819l13.614319 -4.9552l-13.614319 -4.9552z" fill-rule="evenodd"/><path fill="#000000" fill-opacity="0.0" d="m568.2388 207.72299l0 71.16849" fill-rule="evenodd"/><path stroke="#000000" stroke-width="3.0" stroke-linejoin="round" stroke-linecap="butt" d="m568.2388 207.72299l0 71.16849" fill-rule="evenodd"/><path fill="#cfe2f3" d="m663.14246 248.30756l9.376709 0l0 0c3.3118896 0 6.488159 1.3156586 8.830017 3.6575165c2.341919 2.3418732 3.6575317 5.5181427 3.6575317 8.830032l0 12.487579c0 1.5258789E-4 -1.2207031E-4 2.746582E-4 -3.0517578E-4 2.746582E-4l-34.351562 -2.746582E-4l0 0c-1.2207031E-4 0 -2.4414062E-4 -1.2207031E-4 -2.4414062E-4 -3.0517578E-4l2.4414062E-4 -12.487274l0 0c0 -6.8966827 5.5908813 -12.487549 12.48761 -12.487549z" fill-rule="evenodd"/><path stroke="#000000" stroke-width="1.0" stroke-linejoin="round" stroke-linecap="butt" d="m663.14246 248.30756l9.376709 0l0 0c3.3118896 0 6.488159 1.3156586 8.830017 3.6575165c2.341919 2.3418732 3.6575317 5.5181427 3.6575317 8.830032l0 12.487579c0 1.5258789E-4 -1.2207031E-4 2.746582E-4 -3.0517578E-4 2.746582E-4l-34.351562 -2.746582E-4l0 0c-1.2207031E-4 0 -2.4414062E-4 -1.2207031E-4 -2.4414062E-4 -3.0517578E-4l2.4414062E-4 -12.487274l0 0c0 -6.8966827 5.5908813 -12.487549 12.48761 -12.487549z" fill-rule="evenodd"/><path fill="#000000" fill-opacity="0.0" d="m761.56885 239.97389l136.5039 0l0 72.220474l-136.5039 0z" fill-rule="evenodd"/><path fill="#000000" d="m786.8032 276.84265l0 -4.828125l12.453125 0l0 11.40625q-1.8125 1.765625 -5.265625 3.109375q-3.4375 1.328125 -6.96875 1.328125q-4.5 0 -7.84375 -1.875q-3.328125 -1.890625 -5.015625 -5.390625q-1.671875 -3.515625 -1.671875 -7.640625q0 -4.46875 1.875 -7.9375q1.875 -3.484375 5.484375 -5.34375q2.75 -1.421875 6.859375 -1.421875q5.328125 0 8.328125 2.234375q3.0 2.234375 3.859375 6.1875l-5.75 1.078125q-0.609375 -2.109375 -2.28125 -3.328125q-1.65625 -1.234375 -4.15625 -1.234375q-3.796875 0 -6.03125 2.40625q-2.234375 2.40625 -2.234375 7.125q0 5.109375 2.265625 7.65625q2.265625 2.546875 5.9375 2.546875q1.8125 0 3.640625 -0.703125q1.828125 -0.71875 3.140625 -1.734375l0 -3.640625l-6.625 0zm17.832031 10.53125l0 -28.640625l19.625 0l0 4.84375l-13.84375 0l0 6.78125l11.953125 0l0 4.84375l-11.953125 0l0 12.171875l-5.78125 0zm24.386719 0l0 -28.640625l9.28125 0q5.28125 0 6.875 0.4375q2.46875 0.640625 4.125 2.796875q1.65625 2.15625 1.65625 5.578125q0 2.640625 -0.953125 4.4375q-0.953125 1.796875 -2.4375 2.828125q-1.46875 1.015625 -3.0 1.34375q-2.0625 0.421875 -5.984375 0.421875l-3.78125 0l0 10.796875l-5.78125 0zm5.78125 -23.796875l0 8.125l3.171875 0q3.421875 0 4.5625 -0.4375q1.15625 -0.453125 1.8125 -1.40625q0.65625 -0.96875 0.65625 -2.234375q0 -1.5625 -0.921875 -2.578125q-0.921875 -1.015625 -2.328125 -1.265625q-1.03125 -0.203125 -4.15625 -0.203125l-2.796875 0z" fill-rule="nonzero"/><path fill="#000000" fill-opacity="0.0" d="m52.68986 160.9034l411.27084 0" fill-rule="evenodd"/><path stroke="#000000" stroke-width="4.0" stroke-linejoin="round" stroke-linecap="butt" d="m52.68986 160.9034l411.27084 0" fill-rule="evenodd"/><path fill="#f55000" d="m240.59435 126.72135l123.074875 0l0 -34.182045l68.364105 68.36409l-68.364105 68.364105l0 -34.182053l-123.074875 0z" fill-rule="evenodd"/><path stroke="#000000" stroke-width="1.0" stroke-linejoin="round" stroke-linecap="butt" d="m240.59435 126.72135l123.074875 0l0 -34.182045l68.364105 68.36409l-68.364105 68.364105l0 -34.182053l-123.074875 0z" fill-rule="evenodd"/><path fill="#000000" fill-opacity="0.0" d="m72.19848 92.53931l90.38644 0" fill-rule="evenodd"/><path stroke="#000000" stroke-width="3.0" stroke-linejoin="round" stroke-linecap="butt" d="m72.19848 92.53931l72.38644 0" fill-rule="evenodd"/><path fill="#000000" stroke="#000000" stroke-width="3.0" stroke-linecap="butt" d="m144.58493 97.49451l13.614288 -4.9552l-13.614288 -4.9551926z" fill-rule="evenodd"/><path fill="#000000" fill-opacity="0.0" d="m72.19848 92.53931l0 71.1685" fill-rule="evenodd"/><path stroke="#000000" stroke-width="3.0" stroke-linejoin="round" stroke-linecap="butt" d="m72.19848 92.53931l0 71.1685" fill-rule="evenodd"/><path fill="#cfe2f3" d="m167.10211 133.12387l9.3767395 0l0 0c3.311905 0 6.488159 1.3156586 8.830032 3.6575317c2.3418732 2.341858 3.6575317 5.5181274 3.6575317 8.830032l0 12.487564c0 1.5258789E-4 -1.373291E-4 2.746582E-4 -2.89917E-4 2.746582E-4l-34.351578 -2.746582E-4l0 0c-1.5258789E-4 0 -2.746582E-4 -1.373291E-4 -2.746582E-4 -2.89917E-4l2.746582E-4 -12.487274l0 0c0 -6.8966827 5.5908813 -12.487564 12.487564 -12.487564z" fill-rule="evenodd"/><path stroke="#000000" stroke-width="1.0" stroke-linejoin="round" stroke-linecap="butt" d="m167.10211 133.12387l9.3767395 0l0 0c3.311905 0 6.488159 1.3156586 8.830032 3.6575317c2.3418732 2.341858 3.6575317 5.5181274 3.6575317 8.830032l0 12.487564c0 1.5258789E-4 -1.373291E-4 2.746582E-4 -2.89917E-4 2.746582E-4l-34.351578 -2.746582E-4l0 0c-1.5258789E-4 0 -2.746582E-4 -1.373291E-4 -2.746582E-4 -2.89917E-4l2.746582E-4 -12.487274l0 0c0 -6.8966827 5.5908813 -12.487564 12.487564 -12.487564z" fill-rule="evenodd"/><path fill="#000000" fill-opacity="0.0" d="m52.68986 371.84714l411.27084 0" fill-rule="evenodd"/><path stroke="#000000" stroke-width="4.0" stroke-linejoin="round" stroke-linecap="butt" d="m52.68986 371.84714l411.27084 0" fill-rule="evenodd"/><path fill="#fdc01e" d="m240.59435 337.6651l123.074875 0l0 -34.182068l68.364105 68.364105l-68.364105 68.364105l0 -34.182068l-123.074875 0z" fill-rule="evenodd"/><path stroke="#000000" stroke-width="1.0" stroke-linejoin="round" stroke-linecap="butt" d="m240.59435 337.6651l123.074875 0l0 -34.182068l68.364105 68.364105l-68.364105 68.364105l0 -34.182068l-123.074875 0z" fill-rule="evenodd"/><path fill="#000000" fill-opacity="0.0" d="m72.19848 303.48303l90.38644 0" fill-rule="evenodd"/><path stroke="#000000" stroke-width="3.0" stroke-linejoin="round" stroke-linecap="butt" d="m72.19848 303.48303l72.38644 0" fill-rule="evenodd"/><path fill="#000000" stroke="#000000" stroke-width="3.0" stroke-linecap="butt" d="m144.58493 308.43823l13.614288 -4.9552l-13.614288 -4.9552z" fill-rule="evenodd"/><path fill="#000000" fill-opacity="0.0" d="m72.19848 303.48303l0 71.16852" fill-rule="evenodd"/><path stroke="#000000" stroke-width="3.0" stroke-linejoin="round" stroke-linecap="butt" d="m72.19848 303.48303l0 71.16852" fill-rule="evenodd"/><path fill="#cfe2f3" d="m167.10211 344.0676l9.3767395 0l0 0c3.311905 0 6.488159 1.3156738 8.830032 3.6575317c2.3418732 2.3418884 3.6575317 5.5181274 3.6575317 8.830048l0 12.487549c0 1.5258789E-4 -1.373291E-4 2.746582E-4 -2.89917E-4 2.746582E-4l-34.351578 -2.746582E-4l0 0c-1.5258789E-4 0 -2.746582E-4 -1.2207031E-4 -2.746582E-4 -2.746582E-4l2.746582E-4 -12.487274l0 0c0 -6.896698 5.5908813 -12.487579 12.487564 -12.487579z" fill-rule="evenodd"/><path stroke="#000000" stroke-width="1.0" stroke-linejoin="round" stroke-linecap="butt" d="m167.10211 344.0676l9.3767395 0l0 0c3.311905 0 6.488159 1.3156738 8.830032 3.6575317c2.3418732 2.3418884 3.6575317 5.5181274 3.6575317 8.830048l0 12.487549c0 1.5258789E-4 -1.373291E-4 2.746582E-4 -2.89917E-4 2.746582E-4l-34.351578 -2.746582E-4l0 0c-1.5258789E-4 0 -2.746582E-4 -1.2207031E-4 -2.746582E-4 -2.746582E-4l2.746582E-4 -12.487274l0 0c0 -6.896698 5.5908813 -12.487579 12.487564 -12.487579z" fill-rule="evenodd"/><path fill="#000000" fill-opacity="0.0" d="m10.209973 162.88345l198.58267 0l0 93.66931l-198.58267 0z" fill-rule="evenodd"/><path fill="#000000" d="m21.928724 189.53346l5.109375 0l0 3.046875q1.0 -1.5625 2.703125 -2.53125q1.703125 -0.984375 3.765623 -0.984375q3.609375 0 6.125 2.84375q2.53125 2.828125 2.53125 7.890625q0 5.1875 -2.546875 8.078125q-2.53125 2.875 -6.140625 2.875q-1.7187481 0 -3.124998 -0.6875q-1.390625 -0.6875 -2.9375 -2.34375l0 10.453125l-5.484375 0l0 -28.640625zm5.421875 10.03125q0 3.484375 1.390625 5.15625q1.390625 1.671875 3.374998 1.671875q1.921875 0 3.1875 -1.53125q1.265625 -1.53125 1.265625 -5.03125q0 -3.265625 -1.3125 -4.84375q-1.296875 -1.578125 -3.234375 -1.578125q-2.015623 0 -3.343748 1.5625q-1.328125 1.546875 -1.328125 4.59375zm25.652342 10.71875l0 -23.796875l-8.5 0l0 -4.84375l22.750004 0l0 4.84375l-8.468754 0l0 23.796875l-5.78125 0zm27.464848 -20.75l0 4.375l-3.75 0l0 8.359375q0 2.546875 0.09375 2.96875q0.109375 0.421875 0.484375 0.703125q0.390625 0.265625 0.9375 0.265625q0.765625 0 2.203125 -0.53125l0.46875 4.25q-1.90625 0.828125 -4.328125 0.828125q-1.484375 0 -2.6875 -0.5q-1.1875 -0.5 -1.75 -1.28125q-0.546875 -0.796875 -0.765625 -2.140625q-0.171875 -0.96875 -0.171875 -3.875l0 -9.046875l-2.515625 0l0 -4.375l2.515625 0l0 -4.109375l5.515625 -3.203125l0 7.3125l3.75 0zm9.0546875 20.75l-5.484375 0l0 -20.75l5.09375 0l0 2.953125q1.3125 -2.09375 2.359375 -2.75q1.046875 -0.671875 2.375 -0.671875q1.875 0 3.609375 1.046875l-1.703125 4.78125q-1.390625 -0.90625 -2.578125 -0.90625q-1.15625 0 -1.953125 0.640625q-0.796875 0.640625 -1.265625 2.296875q-0.453125 1.65625 -0.453125 6.953125l0 6.40625z" fill-rule="nonzero"/><path fill="#000000" fill-opacity="0.0" d="m261.26544 124.79002l133.25983 0l0 72.220474l-133.25983 0z" fill-rule="evenodd"/><path fill="#000000" d="m278.6092 143.5494l0 10.53125q2.65625 -3.109375 6.34375 -3.109375q1.890625 0 3.40625 0.703125q1.53125 0.703125 2.296875 1.796875q0.78125 1.09375 1.0625 2.421875q0.28125 1.328125 0.28125 4.125l0 12.171875l-5.484375 0l0 -10.953125q0 -3.265625 -0.3125 -4.140625q-0.3125 -0.890625 -1.109375 -1.40625q-0.78125 -0.515625 -1.96875 -0.515625q-1.375 0 -2.453125 0.671875q-1.0625 0.65625 -1.5625 2.0q-0.5 1.328125 -0.5 3.953125l0 10.390625l-5.484375 0l0 -28.640625l5.484375 0zm24.214844 28.640625l-5.484375 0l0 -20.75l5.09375 0l0 2.953125q1.3125 -2.09375 2.359375 -2.75q1.046875 -0.671875 2.375 -0.671875q1.875 0 3.609375 1.046875l-1.703125 4.78125q-1.390625 -0.90625 -2.578125 -0.90625q-1.15625 0 -1.953125 0.640625q-0.796875 0.640625 -1.265625 2.296875q-0.453125 1.65625 -0.453125 6.953125l0 6.40625zm10.160156 -20.75l5.109375 0l0 3.046875q1.0 -1.5625 2.703125 -2.53125q1.703125 -0.984375 3.765625 -0.984375q3.609375 0 6.125 2.84375q2.53125 2.828125 2.53125 7.890625q0 5.1875 -2.546875 8.078125q-2.53125 2.875 -6.140625 2.875q-1.71875 0 -3.125 -0.6875q-1.390625 -0.6875 -2.9375 -2.34375l0 10.453125l-5.484375 0l0 -28.640625zm5.421875 10.03125q0 3.484375 1.390625 5.15625q1.390625 1.671875 3.375 1.671875q1.921875 0 3.1875 -1.53125q1.265625 -1.53125 1.265625 -5.03125q0 -3.265625 -1.3125 -4.84375q-1.296875 -1.578125 -3.234375 -1.578125q-2.015625 0 -3.34375 1.5625q-1.328125 1.546875 -1.328125 4.59375zm19.230469 10.71875l0 -28.640625l12.15625 0q4.59375 0 6.671875 0.78125q2.078125 0.765625 3.328125 2.75q1.25 1.96875 1.25 4.5q0 3.21875 -1.890625 5.328125q-1.890625 2.09375 -5.65625 2.640625q1.875 1.09375 3.09375 2.40625q1.21875 1.3125 3.28125 4.640625l3.5 5.59375l-6.90625 0l-4.1875 -6.234375q-2.21875 -3.34375 -3.046875 -4.203125q-0.8125 -0.875 -1.734375 -1.1875q-0.921875 -0.328125 -2.90625 -0.328125l-1.171875 0l0 11.953125l-5.78125 0zm5.78125 -16.53125l4.265625 0q4.171875 0 5.203125 -0.34375q1.03125 -0.359375 1.609375 -1.21875q0.59375 -0.859375 0.59375 -2.140625q0 -1.453125 -0.78125 -2.328125q-0.765625 -0.890625 -2.171875 -1.125q-0.703125 -0.109375 -4.21875 -0.109375l-4.5 0l0 7.265625z" fill-rule="nonzero"/><path fill="#000000" fill-opacity="0.0" d="m261.26532 335.7349l124.50394 0l0 72.22049l-124.50394 0z" fill-rule="evenodd"/><path fill="#000000" d="m278.60907 354.4943l0 10.53125q2.65625 -3.109375 6.34375 -3.109375q1.890625 0 3.40625 0.703125q1.53125 0.703125 2.296875 1.796875q0.78125 1.09375 1.0625 2.421875q0.28125 1.328125 0.28125 4.125l0 12.171875l-5.484375 0l0 -10.953125q0 -3.265625 -0.3125 -4.140625q-0.3125 -0.890625 -1.109375 -1.40625q-0.78125 -0.515625 -1.96875 -0.515625q-1.375 0 -2.453125 0.671875q-1.0625 0.65625 -1.5625 2.0q-0.5 1.328125 -0.5 3.953125l0 10.390625l-5.484375 0l0 -28.640625l5.484375 0zm24.214844 28.640625l-5.484375 0l0 -20.75l5.09375 0l0 2.953125q1.3125 -2.09375 2.359375 -2.75q1.046875 -0.671875 2.375 -0.671875q1.875 0 3.609375 1.046875l-1.703125 4.78125q-1.390625 -0.90625 -2.578125 -0.90625q-1.15625 0 -1.953125 0.640625q-0.796875 0.640625 -1.265625 2.296875q-0.453125 1.65625 -0.453125 6.953125l0 6.40625zm10.160156 -20.75l5.109375 0l0 3.046875q1.0 -1.5625 2.703125 -2.53125q1.703125 -0.984375 3.765625 -0.984375q3.609375 0 6.125 2.84375q2.53125 2.828125 2.53125 7.890625q0 5.1875 -2.546875 8.078125q-2.53125 2.875 -6.140625 2.875q-1.71875 0 -3.125 -0.6875q-1.390625 -0.6875 -2.9375 -2.34375l0 10.453125l-5.484375 0l0 -28.640625zm5.421875 10.03125q0 3.484375 1.390625 5.15625q1.390625 1.671875 3.375 1.671875q1.921875 0 3.1875 -1.53125q1.265625 -1.53125 1.265625 -5.03125q0 -3.265625 -1.3125 -4.84375q-1.296875 -1.578125 -3.234375 -1.578125q-2.015625 0 -3.34375 1.5625q-1.328125 1.546875 -1.328125 4.59375zm17.746094 1.40625l5.625 -0.546875q0.5 2.828125 2.046875 4.15625q1.5625 1.328125 4.203125 1.328125q2.78125 0 4.203125 -1.171875q1.421875 -1.1875 1.421875 -2.78125q0 -1.015625 -0.609375 -1.71875q-0.59375 -0.71875 -2.078125 -1.25q-1.015625 -0.34375 -4.625 -1.25q-4.640625 -1.140625 -6.515625 -2.828125q-2.640625 -2.359375 -2.640625 -5.765625q0 -2.1875 1.234375 -4.078125q1.25 -1.90625 3.578125 -2.90625q2.328125 -1.0 5.640625 -1.0q5.390625 0 8.109375 2.375q2.71875 2.359375 2.859375 6.296875l-5.78125 0.25q-0.375 -2.203125 -1.59375 -3.171875q-1.21875 -0.96875 -3.65625 -0.96875q-2.515625 0 -3.953125 1.046875q-0.90625 0.65625 -0.90625 1.765625q0 1.015625 0.859375 1.75q1.09375 0.90625 5.3125 1.90625q4.21875 1.0 6.234375 2.0625q2.015625 1.0625 3.15625 2.90625q1.15625 1.84375 1.15625 4.5625q0 2.46875 -1.375 4.625q-1.359375 2.140625 -3.859375 3.1875q-2.5 1.046875 -6.234375 1.046875q-5.4375 0 -8.34375 -2.515625q-2.90625 -2.515625 -3.46875 -7.3125z" fill-rule="nonzero"/><path fill="#000000" fill-opacity="0.0" d="m412.3101 202.44064l97.00787 -28.566925" fill-rule="evenodd"/><path stroke="#e06666" stroke-width="3.0" stroke-linejoin="round" stroke-linecap="butt" d="m412.3101 202.44064l79.74097 -23.482162" fill-rule="evenodd"/><path fill="#e06666" stroke="#e06666" stroke-width="3.0" stroke-linecap="butt" d="m493.45084 183.71185l11.660034 -8.599243l-14.459564 -0.9075165z" fill-rule="evenodd"/><path fill="#000000" fill-opacity="0.0" d="m418.6696 320.0407l98.55118 -114.23622" fill-rule="evenodd"/><path stroke="#f1c232" stroke-width="3.0" stroke-linejoin="round" stroke-linecap="butt" d="m418.6696 320.0407l86.793335 -100.607086" fill-rule="evenodd"/><path fill="#f1c232" stroke="#f1c232" stroke-width="3.0" stroke-linecap="butt" d="m509.2149 222.67043l5.1410522 -13.545197l-12.6449585 7.0716095z" fill-rule="evenodd"/><path fill="#f55000" d="m523.59283 137.96565l47.716553 0l0 45.606293l-47.716553 0z" fill-rule="evenodd"/><path stroke="#595959" stroke-width="1.0" stroke-linejoin="round" stroke-linecap="butt" d="m523.59283 137.96565l47.716553 0l0 45.606293l-47.716553 0z" fill-rule="evenodd"/><path fill="#000000" d="m535.53033 175.1688l0 -28.640625l12.15625 0q4.59375 0 6.671875 0.78125q2.078125 0.765625 3.328125 2.75q1.25 1.96875 1.25 4.5q0 3.21875 -1.890625 5.328125q-1.890625 2.09375 -5.65625 2.640625q1.875 1.09375 3.09375 2.40625q1.21875 1.3125 3.28125 4.640625l3.5 5.59375l-6.90625 0l-4.1875 -6.234375q-2.21875 -3.34375 -3.046875 -4.203125q-0.8125 -0.875 -1.734375 -1.1875q-0.921875 -0.328125 -2.90625 -0.328125l-1.171875 0l0 11.953125l-5.78125 0zm5.78125 -16.53125l4.265625 0q4.171875 0 5.203125 -0.34375q1.03125 -0.359375 1.609375 -1.21875q0.59375 -0.859375 0.59375 -2.140625q0 -1.453125 -0.78125 -2.328125q-0.765625 -0.890625 -2.171875 -1.125q-0.703125 -0.109375 -4.21875 -0.109375l-4.5 0l0 7.265625z" fill-rule="nonzero"/><path fill="#fdc01e" d="m573.0896 137.96565l47.716553 0l0 45.606293l-47.716553 0z" fill-rule="evenodd"/><path stroke="#595959" stroke-width="1.0" stroke-linejoin="round" stroke-linecap="butt" d="m573.0896 137.96565l47.716553 0l0 45.606293l-47.716553 0z" fill-rule="evenodd"/><path fill="#000000" d="m583.5427 165.8563l5.625 -0.546875q0.5 2.828125 2.046875 4.15625q1.5625 1.328125 4.203125 1.328125q2.78125 0 4.203125 -1.171875q1.421875 -1.1875 1.421875 -2.78125q0 -1.015625 -0.609375 -1.71875q-0.59375 -0.71875 -2.078125 -1.25q-1.015625 -0.34375 -4.625 -1.25q-4.640625 -1.140625 -6.515625 -2.828125q-2.640625 -2.359375 -2.640625 -5.765625q0 -2.1875 1.234375 -4.078125q1.25 -1.90625 3.578125 -2.90625q2.328125 -1.0 5.640625 -1.0q5.390625 0 8.109375 2.375q2.71875 2.359375 2.859375 6.296875l-5.78125 0.25q-0.375 -2.203125 -1.59375 -3.171875q-1.21875 -0.96875 -3.65625 -0.96875q-2.515625 0 -3.953125 1.046875q-0.90625 0.65625 -0.90625 1.765625q0 1.015625 0.859375 1.75q1.09375 0.90625 5.3125 1.90625q4.21875 1.0 6.234375 2.0625q2.015625 1.0625 3.15625 2.90625q1.15625 1.84375 1.15625 4.5625q0 2.46875 -1.375 4.625q-1.359375 2.140625 -3.859375 3.1875q-2.5 1.046875 -6.234375 1.046875q-5.4375 0 -8.34375 -2.515625q-2.90625 -2.515625 -3.46875 -7.3125z" fill-rule="nonzero"/><path fill="#000000" fill-opacity="0.0" d="m10.209973 374.41806l198.58267 0l0 93.66928l-198.58267 0z" fill-rule="evenodd"/><path fill="#000000" d="m21.928724 401.06805l5.109375 0l0 3.046875q1.0 -1.5625 2.703125 -2.53125q1.703125 -0.984375 3.765623 -0.984375q3.609375 0 6.125 2.84375q2.53125 2.828125 2.53125 7.890625q0 5.1875 -2.546875 8.078125q-2.53125 2.875 -6.140625 2.875q-1.7187481 0 -3.124998 -0.6875q-1.390625 -0.6875 -2.9375 -2.34375l0 10.453125l-5.484375 0l0 -28.640625zm5.421875 10.03125q0 3.484375 1.390625 5.15625q1.390625 1.671875 3.374998 1.671875q1.921875 0 3.1875 -1.53125q1.265625 -1.53125 1.265625 -5.03125q0 -3.265625 -1.3125 -4.84375q-1.296875 -1.578125 -3.234375 -1.578125q-2.015623 0 -3.343748 1.5625q-1.328125 1.546875 -1.328125 4.59375zm19.355467 10.71875l0 -28.40625l5.78125 0l0 23.578125l14.375004 0l0 4.828125l-20.156254 0zm28.339848 -14.421875l-4.96875 -0.890625q0.828125 -3.015625 2.875 -4.453125q2.0625 -1.453125 6.109375 -1.453125q3.671875 0 5.46875 0.875q1.796875 0.875 2.515625 2.21875q0.734375 1.328125 0.734375 4.90625l-0.046875 6.40625q0 2.734375 0.25 4.03125q0.265625 1.296875 1.0 2.78125l-5.4375 0q-0.21875 -0.546875 -0.53125 -1.625q-0.125 -0.484375 -0.1875 -0.640625q-1.40625 1.359375 -3.015625 2.046875q-1.59375 0.6875 -3.40625 0.6875q-3.203125 0 -5.0625 -1.734375q-1.84375 -1.75 -1.84375 -4.40625q0 -1.75 0.84375 -3.125q0.84375 -1.375 2.359375 -2.109375q1.515625 -0.734375 4.359375 -1.28125q3.84375 -0.71875 5.328125 -1.34375l0 -0.546875q0 -1.59375 -0.78125 -2.265625q-0.78125 -0.671875 -2.9375 -0.671875q-1.46875 0 -2.296875 0.578125q-0.8125 0.578125 -1.328125 2.015625zm7.34375 4.453125q-1.046875 0.359375 -3.34375 0.84375q-2.28125 0.484375 -2.984375 0.953125q-1.0625 0.765625 -1.0625 1.9375q0 1.15625 0.859375 2.0q0.859375 0.828125 2.1875 0.828125q1.484375 0 2.828125 -0.96875q1.0 -0.75 1.3125 -1.8125q0.203125 -0.703125 0.203125 -2.6875l0 -1.09375zm28.886719 -4.640625l-5.40625 0.96875q-0.265625 -1.609375 -1.234375 -2.421875q-0.96875 -0.828125 -2.515625 -0.828125q-2.046875 0 -3.265625 1.421875q-1.21875 1.40625 -1.21875 4.71875q0 3.703125 1.234375 5.234375q1.234375 1.515625 3.328125 1.515625q1.5625 0 2.5625 -0.890625q1.0 -0.890625 1.40625 -3.0625l5.390625 0.921875q-0.84375 3.703125 -3.234375 5.609375q-2.375 1.890625 -6.375 1.890625q-4.546875 0 -7.265625 -2.875q-2.703125 -2.875 -2.703125 -7.953125q0 -5.125 2.71875 -7.984375q2.71875 -2.875 7.34375 -2.875q3.796875 0 6.03125 1.640625q2.234375 1.625 3.203125 4.96875z" fill-rule="nonzero"/></g></svg>